# OBJ Exported from DrPetter's Sculptris
# symmetry 1
usemtl (null)
s 0
v -1 1 -1
v -1 1  1
v  1 1  1
v  1 1 -1

v -1 -1 -1
v -1 -1  1
v  1 -1  1
v  1 -1 -1

vt 0 0
vt 1 0
vt 1 1
vt 0 1

vn  0  1  0
vn  0 -1  0
vn -1  0  0
vn  1  0  0
vn  0  0  1
vn  0  0 -1

f 1/4/1 3/2/1 4/3/1
f 1/4/1 2/1/1 3/2/1

f 5/1/2 7/3/2 6/4/2
f 5/1/2 8/2/2 7/3/2

f 1/4/3 6/2/3 2/3/3
f 1/4/3 5/1/3 6/2/3

f 4/3/4 3/4/4 7/1/4
f 4/3/4 7/1/4 8/2/4

f 2/4/5 7/2/5 3/3/5
f 2/4/5 6/1/5 7/2/5

f 1/3/6 4/4/6 8/1/6
f 1/3/6 8/1/6 5/2/6


