# OBJ Exported from DrPetter's Sculptris
# symmetry 1
usemtl (null)
s 0
v -0.5 0.5 -3.0
v -0.5 0.5 3.0
v 0.5 0.5 3.0
v 0.5 0.5 -3.0

v -0.5 -0.5 -3.0
v -0.5 -0.5 3.0
v 0.5 -0.5 3.0
v 0.5 -0.5 -3.0

vt 0.0 1.0
vt 0.0 0.0
vt 1.0 0.0
vt 1.0 1.0

vn 0.0 -1.0 0.0
vn 0.0 1.0 0.0
vn 1.0 0.0 0.0
vn -1.0 0.0 0.0
vn 0.0 0.0 1.0

f 1/1/1 4/4/1 2/2/1
f 2/2/1 4/4/1 3/3/1 

f 8/1/2 5/4/2 6/2/2
f 8/2/2 6/4/2 7/3/2

f 5/1/3 1/4/3 2/2/3
f 2/2/3 6/4/3 5/3/3

f 4/1/4 8/4/4 3/2/4
f 8/2/4 7/4/4 3/3/4

f 4/1/5 1/4/5 5/2/5
f 4/2/5 5/4/5 8/3/5
